#!OML:ASF H:\Pregnant\Project 1\Capture day 1\Session 1\femalepreg.ASF
:FULLY-SPECIFIED
:DEGREES
662
root 8.0313 15.2918 21.2701 92.2575 -434.262 -363.27
lowerback 28.2118 3.95535 -1.72116
upperback 7.64013 4.62613 7.28555
thorax -7.74823 1.98111 7.66043
lowerneck -43.1772 3.89951 -0.547092
upperneck -3.49267 4.71904 -5.8566
head 4.8673 1.20675 -1.33549
rclavicle -1.36366e-013 -4.70126e-014
rhumerus 80.7054 -2.50462 -46.5461
rradius 29.0816
rwrist 14.7408
rhand -44.4416 -23.0013
rfingers 7.12502
rthumb -17.2463 -52.2561
lclavicle -1.36366e-013 -4.70126e-014
lhumerus 74.3555 3.3505 66.748
lradius 31.855
lwrist 17.9246
lhand -51.3778 -34.0995
lfingers 7.12502
lthumb -23.911 -5.56811
rfemur -101.064 -10.6367 -28.3473
rtibia 23.321
rfoot -13.5071 -43.157
rtoes 15.2585
lfemur -91.5127 7.05431 -7.16508
ltibia 1.78906e-014
lfoot 9.77474 12.405
ltoes -19.668
663
root 8.02342 15.2941 21.2747 92.3784 -434.236 -363.543
lowerback 28.2756 3.69935 -1.6217
upperback 7.91226 4.28473 7.08074
thorax -7.39513 1.80298 7.4843
lowerneck -43.8321 4.11451 -0.505038
upperneck -3.39637 4.93723 -5.55386
head 4.95025 1.32481 -1.20535
rclavicle -3.42904e-015 1.18774e-014
rhumerus 81.4514 -2.5663 -46.0747
rradius 28.9846
rwrist 14.5826
rhand -44.0796 -23.5252
rfingers 7.12502
rthumb -16.8978 -52.8101
lclavicle -3.42904e-015 1.18774e-014
lhumerus 74.4843 4.03223 65.6632
lradius 31.5859
lwrist 17.682
lhand -51.3339 -33.5011
lfingers 7.12502
lthumb -23.8688 -4.96424
rfemur -101.029 -10.4366 -28.2678
rtibia 23.3447
rfoot -13.4381 -43.1678
rtoes 15.2282
lfemur -91.352 7.09345 -7.13665
ltibia -1.39149e-014
lfoot 9.72551 12.5231
ltoes -19.2306
664
root 8.01802 15.2971 21.2771 92.4131 -434.224 -363.753
lowerback 28.3146 3.46543 -1.54827
upperback 8.1561 3.968 6.85779
thorax -7.07005 1.6397 7.29345
lowerneck -44.428 4.37086 -0.336634
upperneck -3.31915 5.14574 -5.32105
head 5.02572 1.43189 -1.11886
rclavicle -9.70069e-014 -1.0517e-014
rhumerus 82.0561 -2.64052 -45.6949
rradius 28.8388
rwrist 14.4465
rhand -43.726 -23.9605
rfingers 7.12502
rthumb -16.5574 -53.2741
lclavicle -9.70069e-014 -1.0517e-014
lhumerus 74.5765 4.58027 64.456
lradius 31.2582
lwrist 17.5423
lhand -51.316 -33.0246
lfingers 7.12502
lthumb -23.8517 -4.48553
rfemur -100.981 -10.2376 -28.2058
rtibia 23.383
rfoot -13.3579 -43.1811
rtoes 15.1613
lfemur -91.1496 7.09556 -7.11806
ltibia 7.55382e-015
lfoot 9.71875 12.5912
ltoes -19.2764
665
root 8.01458 15.3005 21.2774 92.3827 -434.227 -363.913
lowerback 28.3145 3.28409 -1.51637
upperback 8.34395 3.71482 6.64826
thorax -6.80522 1.51079 7.1204
lowerneck -44.8641 4.63289 -0.075674
upperneck -3.26807 5.3217 -5.1856
head 5.08345 1.51716 -1.08427
rclavicle -5.90887e-014 -6.1002e-014
rhumerus 82.4261 -2.70453 -45.346
rradius 28.6638
rwrist 14.3375
rhand -43.3406 -24.2799
rfingers 7.12502
rthumb -16.1863 -53.6241
lclavicle -5.90887e-014 -6.1002e-014
lhumerus 74.6051 4.93219 63.2398
lradius 30.8755
lwrist 17.4541
lhand -51.2671 -32.6174
lfingers 7.12502
lthumb -23.8048 -4.07214
rfemur -100.926 -10.0423 -28.1616
rtibia 23.4336
rfoot -13.2863 -43.1932
rtoes 15.1054
lfemur -90.9397 7.08373 -7.11322
ltibia -4.77083e-015
lfoot 9.72392 12.6484
ltoes -19.3574
666
root 8.01256 15.3043 21.276 92.2979 -434.247 -364.028
lowerback 28.2738 3.20505 -1.54492
upperback 8.4235 3.59087 6.50599
thorax -6.67088 1.44934 7.01613
lowerneck -45.0007 4.83189 0.206121
upperneck -3.24969 5.42563 -5.1749
head 5.10925 1.56342 -1.10688
rclavicle -2.47487e-014 5.43179e-014
rhumerus 82.4245 -2.7045 -45.0043
rradius 28.46
rwrist 14.3406
rhand -42.9315 -24.4268
rfingers 7.12502
rthumb -15.7924 -53.8026
lclavicle -2.47487e-014 5.43179e-014
lhumerus 74.534 4.95268 62.2048
lradius 30.4313
lwrist 17.3535
lhand -51.2159 -32.3086
lfingers 7.12502
lthumb -23.7557 -3.75695
rfemur -100.866 -9.85187 -28.1351
rtibia 23.4955
rfoot -13.2088 -43.2048
rtoes 15.0225
lfemur -90.7252 7.06104 -7.123
ltibia 5.56597e-015
lfoot 9.73099 12.6962
ltoes -19.4317
667
root 8.01168 15.3079 21.2732 92.1534 -434.28 -364.087
lowerback 28.1908 3.24535 -1.6337
upperback 8.37914 3.62002 6.45566
thorax -6.68686 1.46685 7.00091
lowerneck -44.7977 4.92902 0.46454
upperneck -3.26216 5.4375 -5.28893
head 5.09936 1.56263 -1.18355
rclavicle 6.03808e-014 6.93013e-014
rhumerus 82.0025 -2.62668 -44.6206
rradius 28.249
rwrist 14.438
rhand -42.5178 -24.4669
rfingers 7.12502
rthumb -15.3939 -53.8738
lclavicle 6.03808e-014 6.93013e-014
lhumerus 74.376 4.60028 61.4408
lradius 29.9256
lwrist 17.2302
lhand -51.1435 -32.0856
lfingers 7.12502
lthumb -23.6863 -3.52503
rfemur -100.8 -9.67207 -28.1236
rtibia 23.569
rfoot -13.142 -43.2087
rtoes 14.9288
lfemur -90.5104 7.0239 -7.14555
ltibia -7.95139e-015
lfoot 9.73831 12.7337
ltoes -19.5213
668
root 8.01155 15.3114 21.2692 91.9657 -434.324 -364.105
lowerback 28.0698 3.40736 -1.78239
upperback 8.20993 3.80607 6.50438
thorax -6.85735 1.56541 7.08136
lowerneck -44.2574 4.91157 0.677333
upperneck -3.30377 5.35423 -5.52055
head 5.05288 1.5147 -1.30864
rclavicle 1.48467e-015 -2.93145e-014
rhumerus 81.1702 -2.46124 -44.1834
rradius 28.0277
rwrist 14.6254
rhand -42.1642 -24.4442
rfingers 7.12502
rthumb -15.0534 -53.8769
lclavicle 1.48467e-015 -2.93145e-014
lhumerus 74.1476 3.87635 61.0009
lradius 29.3607
lwrist 17.0746
lhand -51.0629 -31.925
lfingers 7.12502
lthumb -23.6089 -3.35441
rfemur -100.732 -9.50092 -28.1236
rtibia 23.6509
rfoot -13.0784 -43.2092
rtoes 14.8116
lfemur -90.2972 6.97816 -7.17851
ltibia 1.19271e-014
lfoot 9.73352 12.7685
ltoes -19.5733
669
root 8.01186 15.3146 21.2644 91.7375 -434.374 -364.08
lowerback 27.9226 3.6693 -1.97819
upperback 7.93166 4.12347 6.6353
thorax -7.16748 1.73319 7.23886
lowerneck -43.4435 4.79406 0.848498
upperneck -3.35605 5.18716 -5.8436
head 4.97896 1.42652 -1.47094
rclavicle 6.95746e-014 4.87519e-014
rhumerus 79.9992 -2.22532 -43.7645
rradius 27.789
rwrist 15.0161
rhand -41.8569 -24.397
rfingers 7.12502
rthumb -14.7573 -53.8517
lclavicle 6.95746e-014 4.87519e-014
lhumerus 73.8703 2.83521 60.8771
lradius 28.7429
lwrist 16.8772
lhand -50.9874 -31.8231
lfingers 7.12502
lthumb -23.5365 -3.24319
rfemur -100.659 -9.33995 -28.1315
rtibia 23.7389
rfoot -13.0254 -43.2015
rtoes 14.6847
lfemur -90.0869 6.92377 -7.2188
ltibia 1.66979e-014
lfoot 9.71486 12.7998
ltoes -19.594
670
root 8.01231 15.3175 21.2587 91.4961 -434.431 -364.037
lowerback 27.7569 3.99599 -2.21065
upperback 7.59062 4.52488 6.81423
thorax -7.56219 1.94628 7.44368
lowerneck -42.4887 4.61438 0.990194
upperneck -3.41026 4.9653 -6.21247
head 4.88909 1.31279 -1.65121
rclavicle 1.21259e-014 5.33737e-014
rhumerus 78.6303 -1.95872 -43.4098
rradius 27.5359
rwrist 15.5686
rhand -41.6064 -24.4472
rfingers 7.12502
rthumb -14.5159 -53.9194
lclavicle 1.21259e-014 5.33737e-014
lhumerus 73.5844 1.60184 60.9948
lradius 28.092
lwrist 16.6575
lhand -50.9778 -31.7332
lfingers 7.12502
lthumb -23.5273 -3.15208
rfemur -100.587 -9.18531 -28.1447
rtibia 23.826
rfoot -12.982 -43.1863
rtoes 14.5783
lfemur -89.8804 6.8698 -7.26559
ltibia -1.31198e-014
lfoot 9.68224 12.828
ltoes -19.6002
671
root 8.01266 15.3203 21.2526 91.2478 -434.49 -363.982
lowerback 27.5829 4.34085 -2.4566
upperback 7.22845 4.95164 7.004
thorax -7.98856 2.17507 7.65933
lowerneck -41.522 4.4118 1.11891
upperneck -3.44385 4.72082 -6.5837
head 4.8008 1.18935 -1.83175
rclavicle 1.64991e-013 6.12257e-014
rhumerus 77.2033 -1.68326 -43.1173
rradius 27.2742
rwrist 16.192
rhand -41.4131 -24.6508
rfingers 7.12502
rthumb -14.3297 -54.1363
lclavicle 1.64991e-013 6.12257e-014
lhumerus 73.3097 0.308368 61.2787
lradius 27.43
lwrist 16.4079
lhand -50.9869 -31.6655
lfingers 7.12502
lthumb -23.5361 -3.08557
rfemur -100.51 -9.03725 -28.1607
rtibia 23.9039
rfoot -12.9485 -43.1657
rtoes 14.4833
lfemur -89.6784 6.8166 -7.31645
ltibia -7.55382e-015
lfoot 9.63394 12.8577
ltoes -19.5695
